<svg width="240" height="324" viewBox="0 0 240 324" fill="none" xmlns="http://www.w3.org/2000/svg">
<path fill-rule="evenodd" clip-rule="evenodd" d="M127.586 126.849C133.741 127.153 143.324 129.792 143.803 131.479C144.551 134.113 142.943 143.989 145.632 149.309C146.778 151.576 151.131 151.373 152.818 152.112C158.46 154.583 175.166 159.269 178.61 165.17C179.99 167.534 188.47 196.867 192.976 211.832C193.484 213.519 194.058 215.079 194.682 216.525L194.911 215.402C196.748 206.357 197.667 200.881 197.667 198.975C197.667 195.997 195.292 183.43 197.667 180.234C200.018 177.07 205.684 174.483 208.234 174.432L208.31 174.431C209.984 174.431 211.436 173.908 212.667 172.861L214.472 171.953C223.654 167.344 229.018 164.816 230.565 164.368C233.033 163.654 237.234 165.175 235.134 167.459C233.733 168.981 230.214 171.674 224.577 175.538L222.451 177.227L222.708 177.361C225.455 178.808 227.07 180.026 227.554 181.015C228.052 182.034 227.813 183.24 226.837 184.631L226.985 184.776C228.22 185.988 228.837 186.802 228.837 187.216V189.238C230.066 191.038 230.373 192.539 229.758 193.742C229.144 194.944 228.17 195.986 226.837 196.867C225.854 199.453 224.684 201.293 223.326 202.389C221.968 203.484 219.621 204.395 216.285 205.123L213.267 212.343L210.821 222.487L209.588 233.806L209.946 234.065C211.605 235.273 212.667 236.169 212.667 237.095C212.667 238.537 205.975 272.454 195.563 273.972C193.311 274.301 181.633 272.69 177.799 269.57L177.855 269.907C178.757 275.358 178.567 278.189 177.283 278.4C161.504 280.988 116.69 281.787 42.8424 280.799C42.403 241.589 44.3897 215.475 48.8025 202.459C60.0884 169.168 72.5317 157.798 76.8849 156.824C80.6982 155.971 93.9211 150.706 97.6174 149.309C100.03 148.397 100.547 145.662 103.297 145.662L103.519 145.663C106.178 145.69 108.536 146.165 109.861 144.797C113.338 141.207 112.366 136.237 113.808 131.479C114.603 128.857 120.033 126.476 127.586 126.849Z" fill="#D08B5B"/>
<path d="M103.297 145.662L103.519 145.663C104.176 145.67 104.815 145.704 105.424 145.73L104.14 150.107L104.113 150.567C103.279 165.656 110.665 172.879 126.271 172.236C141.877 171.594 149.639 166.656 149.558 157.422L149.554 157.141L149.554 151.395L149.799 151.442C150.984 151.664 152.125 151.809 152.818 152.112C158.46 154.583 175.166 159.269 178.61 165.17C179.99 167.534 188.47 196.867 192.976 211.832C193.141 212.379 193.312 212.912 193.49 213.433L193.49 216.39L193.441 216.57C191.862 222.479 193.965 227.31 199.749 231.064C203.85 233.724 208.061 235.451 212.382 236.245C212.568 236.532 212.667 236.812 212.667 237.095C212.667 238.537 205.975 272.454 195.563 273.973C193.311 274.301 181.633 272.691 177.799 269.57L177.855 269.907L177.908 270.231C178.749 275.471 178.541 278.194 177.283 278.4C161.504 280.988 116.69 281.787 42.8424 280.799C42.403 241.589 44.3897 215.475 48.8025 202.459C60.0884 169.168 72.5317 157.798 76.8849 156.824C80.6982 155.971 93.9211 150.706 97.6174 149.309C100.03 148.397 100.547 145.662 103.297 145.662Z" fill="#BA98DE"/>
<path fill-rule="evenodd" clip-rule="evenodd" d="M110.677 136.249C111.038 135.533 111.997 135.626 112.63 135.951C114.528 137.339 112.542 140.029 112.017 141.723C110.666 145.008 108.321 148.219 105.083 149.754C105.351 153.02 105.655 156.279 105.768 159.555C109.907 164.692 116.887 166.566 123.083 168.008C132.814 170.7 143.797 165.185 147.081 155.562C143.343 153.437 142.133 147.874 143.249 143.993C143.346 143.72 143.768 143.6 143.918 143.904C144.942 146.01 144.805 148.58 145.969 150.66C157.138 151.73 171.553 155.946 178.87 164.982C182.113 169.503 183.398 175.383 184.995 180.622C188.403 191.424 191.118 202.444 194.46 213.257L194.854 211.211C195.934 205.575 196.915 199.863 196.186 194.131L196.172 193.857C195.934 189.297 194.508 180.822 198.043 177.743C201.241 175.298 205.874 173.334 209.887 174.461C217.028 171.282 223.192 165.928 230.798 163.843C233.139 163.361 236.506 163.932 235.953 167.109C234.42 172.665 227.998 174.821 223.608 177.686C226.422 178.449 229.853 181.872 227.654 184.858C227.635 184.91 227.618 184.951 227.601 184.982C229.384 185.773 229.634 187.759 229.196 189.463C229.152 189.913 229.034 189.526 229.298 189.934C231.31 191.832 230.421 197.123 227.39 197.302C227.589 199.808 225.979 202.243 223.94 203.611C221.743 205.084 218.565 205.147 216.746 207.163C212.475 214.698 211.002 223.592 210.536 232.22C213.352 233.274 215.878 236.427 213.32 239.101C213.269 239.107 213.219 239.113 213.168 239.117C211.685 243.076 211.112 247.296 210.328 251.431C209.121 258.485 205.977 264.963 201.962 270.839C197.319 278.619 184.833 277.385 178.543 272.365C178.568 273.682 178.785 274.991 178.363 276.264C177.741 277.638 176.223 277.044 176.073 275.692C172.748 277.562 171.965 271.387 175.661 272.367C175.377 267.903 175.212 263.433 175.078 258.961C170.894 260.316 170.713 253.371 174.994 254.759L174.989 252.839C174.957 238.116 175.12 223.343 177.062 208.736C177.242 207.643 177.546 206.586 177.723 205.5C177.742 205.388 177.918 205.42 177.918 205.527C178.219 225.978 176.883 246.472 178.277 266.929C179.437 267.283 179.9 268.615 180.759 269.391C182.667 271.153 185.264 272.011 187.805 272.31C194.918 273.307 197.989 271.134 201.157 264.949C199.728 265.904 197.798 264.217 198.669 262.706L198.696 262.66C199.6 261.058 202.154 262.018 201.831 263.812C205.016 258.71 206.683 252.956 207.914 247.119L208.08 246.422C208.679 243.944 209.455 241.104 210.892 238.862C202.128 236.627 193.556 229.82 192.184 220.479C189.959 227.473 186.945 234.309 184.072 241.11C183.185 243.476 182.815 246.018 181.543 248.212C181.247 248.719 180.497 248.588 180.33 248.053C179.186 242.937 182.652 238.071 184.452 233.466C185.921 230.863 190.139 218.977 192.755 218.949C189.816 206.063 185.896 193.274 182.163 180.549C178.554 163.366 171.198 160.053 155.616 154.643C158.426 168.972 171.259 182.841 164.43 197.87L164.264 198.26C163.566 199.917 162.986 201.587 163.473 203.406C163.946 205.17 165.024 206.703 165.886 208.29C170.705 217.256 167.388 227.726 165.525 237.063C163.171 248.013 160.846 258.972 158.413 269.905C157.934 272.086 157.623 274.333 156.899 276.446C156.525 277.537 154.659 277.433 154.78 276.161C155.01 273.692 155.703 271.285 156.21 268.861C159.239 253.166 163.338 237.656 165.944 221.892C167.621 210.223 161.021 208.43 161.267 200.891C162.164 197.034 164.539 193.593 164.403 189.484C164.93 176.905 155.771 166.528 154.641 154.294L152.644 153.581C151.646 153.224 150.65 152.864 149.656 152.495C154.886 189.085 153.298 226.474 150.684 263.245C150.149 264.942 150.658 282.289 148.418 281.237C148.305 281.9 147.954 282.551 147.189 282.548C140.244 282.611 133.298 282.721 126.354 282.804C123.013 282.496 118.422 283.772 115.581 281.844C112.3 280.907 111.923 266.525 111.046 263.357L110.704 261.054C105.13 223.41 100.142 184.99 104.149 146.974C98.5743 147.188 97.4238 153.207 97.0103 157.589C95.9766 167.261 89.7298 175.59 89.4302 185.373C89.4049 187.747 89.8528 190.046 90.8012 192.225C93.3174 197.564 97.6691 203.737 94.4166 209.7C90.57 214.342 90.903 215.564 92.3145 221.3C96.2857 240.265 102.881 258.497 109.154 276.783C107.791 283.89 99.5922 257.506 98.8209 255.516C95.1915 257.342 93.209 251.283 97.3718 250.852C94.698 241.898 92.2374 232.878 90.1887 223.759L90.1344 223.502C89.2295 219.288 87.4495 214.354 90.4553 210.617C98.2059 202.776 85.3348 194.012 86.9584 184.513C85.5564 185.553 83.4343 184.459 83.4662 182.712C83.4026 180.746 86.043 179.739 87.3136 181.239C88.6199 173.532 93.1648 166.805 94.5402 159.121L94.6023 158.76C95.0683 156.044 95.1998 153.187 96.5331 150.712C94.7181 151.891 92.7852 152.844 90.7971 153.685C94.3517 156.656 87.4684 159.366 88.038 154.778C68.5448 160.42 64.1388 168.288 56.9816 186.356C58.3185 185.057 60.6087 186.738 59.8084 188.395C59.17 190.141 56.3848 189.631 56.3859 187.77L56.0597 188.548C51.7197 198.929 47.7696 209.563 45.7845 220.673C49.6785 220.123 48.6871 226.349 45.1589 224.593C43.743 234.474 43.7206 244.495 43.8936 254.455C47.1782 252.732 47.2771 258.587 43.9253 256.917C44.0478 265.08 44.2274 273.242 44.3626 281.404C44.3901 283.142 41.7112 283.133 41.669 281.404C41.3561 268.863 40.7859 256.298 41.0569 243.753C40.8019 221.978 47.0592 200.991 56.3825 181.485C64.6319 159.026 76.0268 156.472 96.9915 149.942C98.9267 147.069 103.061 144.351 106.435 146.155C108.322 143.107 109.28 139.497 110.677 136.249ZM74.758 214.525C74.8361 214.248 75.2312 214.317 75.2439 214.59C75.4192 218.114 75.2629 221.66 75.022 225.198C74.8761 227.358 74.6967 229.516 74.5446 231.661C74.1411 237.321 73.8157 242.987 73.5685 248.658C73.6551 248.622 73.7439 248.59 73.8368 248.565C74.2636 248.448 74.6906 248.448 75.1171 248.565C75.4977 248.671 75.8304 248.857 76.117 249.125L76.1777 249.184C76.4122 249.402 76.5791 249.66 76.6763 249.958C76.8147 250.223 76.8848 250.506 76.8846 250.809L76.8831 250.885C76.8812 251.321 76.7735 251.724 76.5537 252.101C76.3404 252.462 76.053 252.75 75.6918 252.965C75.3157 253.183 74.912 253.291 74.477 253.293C74.4305 253.297 74.3838 253.301 74.3375 253.303C74.0141 253.316 73.7122 253.248 73.4331 253.103L73.3911 253.09C73.2854 255.966 73.1988 258.845 73.1354 261.724C73.0784 264.232 73.0023 266.741 72.9516 269.25L72.9281 270.505L72.8821 273.278C72.8671 274.419 72.8745 275.511 72.4869 276.586L72.4404 276.71C72.1615 277.429 71.9441 278.429 71.1979 278.828C70.6023 279.147 69.7995 279.029 69.4572 278.407C69.1699 277.888 69.419 277.139 69.8439 276.788C69.8354 276.765 69.8227 276.744 69.8122 276.721C69.7467 276.531 69.6472 276.351 69.5882 276.159C69.4021 275.55 69.453 274.901 69.4509 274.269C69.4509 273.153 69.4887 272.037 69.5185 270.923C69.584 268.552 69.6601 266.183 69.7528 263.814C70.0668 255.866 70.6581 247.918 71.3353 239.993L71.5652 237.318C71.8714 233.76 72.1882 230.199 72.6368 226.661C72.6577 226.491 72.6791 226.322 72.7023 226.153C72.4615 226.033 72.2375 225.866 72.0599 225.68C71.3481 224.932 70.9164 223.814 70.5116 222.851L70.4185 222.632C69.9791 221.605 69.5734 220.565 69.3643 219.462L69.3443 219.36C69.2489 218.891 69.0606 218.058 69.5587 217.83C69.8185 217.712 69.9831 217.797 70.0678 218.056C70.0786 218.09 70.0697 218.128 70.0509 218.158C70.2558 218.473 70.577 218.767 70.7798 219.058L71.4739 220.051L71.8171 220.55C72.2523 221.191 72.7171 221.804 73.1967 222.408C73.5746 219.754 74.0375 217.11 74.758 214.525ZM103.224 273.68C104.092 272.999 105.505 273.369 105.505 274.624C105.505 275.886 104.09 276.25 103.224 275.569L103.18 275.537L103.139 275.503C102.667 275.135 102.652 274.175 103.103 273.775L103.139 273.745C103.166 273.722 103.194 273.701 103.224 273.68ZM65.4722 271.228C65.8651 271.228 66.2306 271.327 66.5708 271.526C66.7187 271.638 66.8644 271.752 67.0123 271.866C67.2828 272.137 67.4687 272.458 67.5722 272.828L67.6506 273.407C67.6609 273.707 67.5997 273.986 67.4623 274.246C67.3736 274.516 67.2236 274.751 67.0123 274.948C66.8137 275.161 66.5813 275.311 66.3111 275.398C66.0727 275.524 65.8185 275.588 65.5468 275.588L65.4722 275.586C65.0773 275.586 64.7116 275.487 64.3715 275.288C64.2236 275.176 64.0778 275.062 63.9299 274.948C63.6616 274.677 63.4736 274.356 63.3703 273.986C63.3447 273.794 63.3196 273.599 63.2919 273.407C63.2816 273.107 63.3447 272.828 63.4799 272.568C63.5687 272.297 63.7187 272.063 63.9299 271.866C64.1287 271.653 64.3609 271.503 64.6313 271.416C64.8695 271.29 65.1255 271.226 65.3976 271.226L65.4722 271.228ZM164.295 267.208L164.849 267.282C165.379 267.402 165.806 267.793 166.091 268.239C166.243 268.478 166.325 268.736 166.338 269.013C166.399 269.288 166.386 269.565 166.3 269.841C166.236 270.112 166.112 270.348 165.928 270.549C165.865 270.649 165.791 270.74 165.706 270.82C165.533 271.11 165.271 271.3 165.001 271.494C164.773 271.64 164.525 271.718 164.259 271.731C164.084 271.777 163.906 271.777 163.729 271.731C163.465 271.718 163.217 271.64 162.989 271.494C162.854 271.391 162.719 271.285 162.586 271.181C162.468 271.044 162.358 270.902 162.254 270.755C162.185 270.592 162.117 270.431 162.049 270.27C161.925 269.884 161.986 269.541 162.054 269.155C162.064 269.089 162.081 269.03 162.104 268.966L162.15 268.844C162.272 268.522 162.336 268.413 162.552 268.134L162.634 268.024C162.675 267.969 162.717 267.916 162.766 267.867C162.901 267.728 163.093 267.612 163.245 267.491C163.57 267.303 163.921 267.21 164.295 267.208ZM92.6371 265.855C92.9435 265.858 93.231 265.934 93.497 266.088L93.8435 266.356C94.0547 266.57 94.2005 266.819 94.2829 267.109C94.3019 267.261 94.3233 267.413 94.3442 267.563C94.3526 267.798 94.3042 268.017 94.1963 268.223C94.1289 268.434 94.0104 268.615 93.8435 268.772C93.6895 268.937 93.5054 269.055 93.2942 269.125C93.1098 269.221 92.9114 269.272 92.7007 269.272L92.6371 269.271C92.3287 269.271 92.0414 269.193 91.7752 269.038L91.4287 268.772C91.2174 268.559 91.0716 268.307 90.9892 268.017C90.9702 267.865 90.9491 267.715 90.928 267.563C90.9195 267.329 90.9681 267.109 91.0759 266.906C91.1456 266.694 91.2618 266.511 91.4287 266.356C91.5829 266.189 91.7667 266.071 91.978 266.003C92.1624 265.906 92.3571 265.857 92.5667 265.855L92.6371 265.855ZM78.624 265.156C79.0653 265.152 79.5134 265.276 79.8747 265.532C80.2254 265.781 80.4914 266.05 80.6627 266.453C80.7092 266.564 80.7555 266.671 80.7958 266.781C80.9775 267.265 81.0113 267.751 80.7599 268.225C80.517 268.683 79.993 268.884 79.5238 269.021C79.1268 269.14 78.6768 269.159 78.2817 269.017C78.0853 268.947 77.893 268.873 77.7155 268.766C77.3839 268.561 77.2043 268.317 76.9824 268.017C76.8092 267.722 76.7226 267.4 76.7226 267.058C76.7226 266.713 76.8092 266.394 76.9824 266.096C77.3224 265.515 77.9522 265.16 78.624 265.156ZM56.2295 265.564C56.7875 265.564 57.2774 265.822 57.6135 266.257C57.9534 266.699 58.0781 267.248 57.9281 267.796C57.7696 268.375 57.2903 268.882 56.6964 269.028C56.2572 269.135 55.8978 269.131 55.4605 269.057C55.0908 268.994 54.8079 268.774 54.5246 268.546C54.2013 268.281 54.102 267.8 54.1548 267.411C54.2056 267.022 54.3853 266.768 54.6579 266.538L54.6598 266.532L54.5584 266.61C54.5966 266.576 54.6344 266.54 54.6727 266.504C54.6851 266.483 54.6957 266.46 54.7063 266.437C54.8626 266.17 55.0739 265.961 55.3379 265.805C55.6147 265.644 55.9105 265.564 56.2295 265.564ZM186.284 259.162C186.59 259.08 186.899 259.08 187.205 259.162C187.431 259.215 187.628 259.318 187.795 259.472C187.964 259.583 188.102 259.724 188.207 259.899L188.24 259.959C188.481 260.369 188.519 260.838 188.416 261.294C188.287 261.859 187.767 262.372 187.205 262.505L187.186 262.509L187.167 262.514C186.939 262.586 186.709 262.596 186.481 262.544C186.25 262.533 186.037 262.465 185.84 262.339C185.591 262.178 185.382 261.971 185.221 261.721C185.094 261.523 185.027 261.309 185.016 261.079C184.976 260.927 184.976 260.775 185.016 260.622C185.027 260.392 185.094 260.178 185.221 259.98L185.492 259.631L185.519 259.608C185.735 259.392 185.99 259.244 186.284 259.162ZM165.014 247.977C167.783 247.977 167.779 252.276 165.014 252.276C162.244 252.276 162.248 247.977 165.014 247.977ZM63.6093 247.434C63.9011 247.369 64.1926 247.381 64.482 247.472C64.6574 247.546 64.8306 247.62 65.0039 247.692L65.4475 248.035C65.5299 248.104 65.5701 248.18 65.6461 248.279L65.7412 248.404C65.8786 248.588 65.8819 248.627 66.0327 249.019C66.1341 249.395 66.1341 249.771 66.0327 250.148C65.9839 250.33 65.9102 250.501 65.8151 250.659C65.7282 250.811 65.6242 250.945 65.5071 251.068L65.4475 251.128C65.2489 251.342 65.0144 251.492 64.744 251.581C64.5729 251.68 64.3891 251.729 64.1926 251.729C63.9011 251.794 63.6093 251.782 63.3201 251.69C63.1447 251.617 62.9715 251.543 62.798 251.471L62.3546 251.128L62.0123 250.685L61.9032 250.424L61.7926 250.163L61.7144 249.581C61.7039 249.279 61.7651 249 61.9023 248.738C61.9551 248.554 62.0482 248.391 62.1832 248.256C62.2806 248.091 62.4114 247.96 62.5764 247.863C62.7114 247.728 62.8743 247.635 63.0581 247.582C63.2292 247.483 63.413 247.434 63.6093 247.434ZM200.599 244.363C200.83 244.355 201.045 244.403 201.244 244.509C201.314 244.532 201.381 244.562 201.447 244.596C201.702 244.746 201.905 244.948 202.055 245.202C202.178 245.397 202.245 245.606 202.256 245.832C202.302 246.036 202.297 246.241 202.242 246.445L202.224 246.506C202.178 246.673 202.108 246.827 202.015 246.969C202.006 246.986 201.996 247.003 201.983 247.018C201.842 247.242 201.654 247.426 201.421 247.563C201.164 247.711 200.887 247.787 200.587 247.789C199.989 247.789 199.473 247.466 199.159 246.969C199.114 246.899 199.089 246.81 199.057 246.739C199.03 246.671 198.985 246.585 198.962 246.506C198.882 246.206 198.882 245.906 198.962 245.606C199.015 245.386 199.114 245.194 199.264 245.031C199.384 244.847 199.543 244.701 199.74 244.596C199.983 244.453 200.245 244.378 200.523 244.365L200.599 244.363ZM83.6582 242.26C83.9508 242.18 84.2417 242.174 84.5323 242.242L84.6049 242.26C84.8371 242.315 85.038 242.421 85.211 242.577C85.4033 242.704 85.5577 242.871 85.6695 243.078C85.8303 243.355 85.9106 243.655 85.9125 243.976C85.9106 244.298 85.8303 244.598 85.6695 244.874C85.511 245.143 85.2977 245.354 85.0296 245.513L84.7972 245.625C84.6028 245.748 84.3958 245.813 84.1716 245.823C84.0218 245.864 83.8716 245.864 83.7239 245.823C83.5716 245.823 83.4301 245.786 83.2993 245.71C83.1556 245.669 83.0329 245.597 82.9272 245.492C82.7434 245.373 82.6 245.217 82.4944 245.021L82.323 244.617L82.2641 244.169L82.323 243.723L82.4162 243.503C82.5005 243.201 82.6528 242.939 82.8744 242.717C83.0963 242.497 83.3582 242.345 83.6582 242.26ZM188.43 238.695C188.739 238.598 189.045 238.585 189.352 238.653C189.558 238.653 189.753 238.705 189.933 238.811C190.129 238.866 190.298 238.963 190.442 239.107C190.693 239.27 190.89 239.485 191.035 239.754L191.268 240.305C191.407 240.662 191.356 241.189 191.272 241.548C191.202 241.844 191.067 242.102 190.866 242.321C190.765 242.493 190.63 242.628 190.458 242.73C190.263 242.908 190.037 243.034 189.781 243.11L189.711 243.129L189.685 243.135C189.681 243.137 189.677 243.137 189.673 243.137C189.671 243.14 189.666 243.14 189.664 243.14C189.563 243.165 189.459 243.18 189.352 243.184C189.045 243.251 188.739 243.239 188.43 243.142C188.249 243.065 188.065 242.987 187.881 242.909C187.725 242.791 187.57 242.67 187.414 242.55C187.294 242.394 187.173 242.237 187.053 242.083C186.884 241.819 186.793 241.531 186.78 241.225C186.725 241.02 186.725 240.817 186.78 240.612C186.78 240.403 186.833 240.21 186.937 240.03C187.03 239.743 187.188 239.496 187.414 239.287C187.57 239.166 187.725 239.046 187.881 238.927C188.065 238.849 188.249 238.771 188.43 238.695ZM53.6839 231.128C54.0027 231.042 54.3219 231.042 54.6409 231.128L55.0696 231.308C55.2808 231.422 55.448 231.576 55.5747 231.773C55.7353 231.946 55.8428 232.151 55.8977 232.386C56.0226 232.707 56.0078 233.217 55.9085 233.544C55.7965 233.916 55.6233 234.212 55.355 234.491C54.9092 234.952 54.2245 235.085 53.6184 234.945C53.4513 234.907 53.2928 234.833 53.1492 234.742C52.6909 234.459 52.3825 233.965 52.3846 233.417C52.3846 233.358 52.3888 233.299 52.3973 233.24C52.3677 233.119 52.3569 232.995 52.3613 232.863L52.4247 232.386L52.4287 232.373C52.5134 232.071 52.6656 231.809 52.8872 231.587C53.0921 231.384 53.3311 231.237 53.6043 231.149L53.6733 231.128H53.6839ZM213.104 183.67C212.527 178.936 210.357 173.844 203.738 176.623L203.247 176.808C201.609 177.428 199.701 178.243 198.704 179.675C198.017 180.662 198.25 182.575 198.155 183.727C197.723 187.472 197.955 191.212 198.404 194.941C198.985 203.682 197.147 212.739 193.49 220.683C197.15 226.609 202.049 232.135 208.733 234.605C209.015 227.868 210.334 221.255 211.737 214.681L211.792 214.395C212.353 211.43 212.634 208.388 214.58 205.923C218.539 201.623 223.984 204.057 226.589 197.15C226.042 196.873 226.344 195.926 227.003 196.108C229.288 196.513 229.659 192.276 228.096 191.255C226.466 190.261 228.107 188.427 227.413 187.104C227.026 186.533 226.192 186.514 225.814 185.857C224.811 183.437 229.829 181.887 223.928 179.159C222.72 178.729 221.37 178.995 220.152 178.991C218.36 179.158 216.936 180.421 215.297 180.818C217.081 185.44 212.579 189.891 208.515 186.2C206.304 188.29 203.831 193.057 209.206 190.835C211.837 189.078 214.102 186.808 217.156 185.726L217.221 185.706C218.354 185.334 223.316 182.923 223.07 185.01C221.211 186.804 218.146 186.783 215.994 188.239C213.01 189.62 211.103 192.964 207.531 192.918C206.707 197.92 212.381 194.877 214.494 193.497L215.08 193.179C218.06 191.569 221.085 190.077 224.561 190.057C225.52 190.05 225.516 191.53 224.561 191.542C220.031 191.571 216.345 194.403 212.55 196.509C212.177 199.429 216.451 198.151 218.073 197.72C219.773 197.481 222.504 195.641 223.993 196.613C224.575 198.109 222.013 197.998 221.121 198.452C225.193 200.408 221.626 201.64 220.534 198.633L220.214 198.742C217.488 199.659 210.877 201.546 211.663 196.926C210.665 197.367 209.449 197.631 208.346 197.386C205.596 201.455 201.21 199.88 207.586 197.107C206.149 196.439 205.669 193.858 207.049 192.897C202.031 192.591 205.757 187.324 207.834 185.568C207.638 185.37 207.448 185.168 207.271 184.963C206.073 185.534 204.814 185.88 203.468 186.003C202.179 186.119 201.892 183.925 203.164 183.746C204.526 183.553 205.782 183.19 206.981 182.505C208.8 181.719 209.421 185.095 211.241 185.215C212.233 185.411 212.905 184.54 213.104 183.67ZM170.855 227.227C171.294 227.227 171.685 227.411 172.004 227.702C172.323 227.994 172.46 228.432 172.479 228.85C172.488 229.074 172.441 229.283 172.34 229.478C172.274 229.678 172.162 229.852 172.004 230C171.708 230.294 171.271 230.476 170.855 230.476C170.415 230.476 170.025 230.291 169.705 230C169.386 229.706 169.249 229.271 169.23 228.85C169.221 228.628 169.268 228.419 169.369 228.224C169.428 228.044 169.525 227.884 169.659 227.747L169.705 227.702C170.001 227.406 170.438 227.227 170.855 227.227ZM184.17 217.203L184.24 217.205C184.612 217.207 184.957 217.3 185.278 217.486C185.417 217.593 185.557 217.699 185.694 217.807C185.95 218.065 186.125 218.367 186.222 218.716C186.322 219.079 186.322 219.445 186.222 219.808C186.188 220.018 186.11 220.221 185.988 220.396C185.806 220.698 185.565 220.941 185.261 221.121C184.946 221.305 184.606 221.396 184.24 221.398C183.875 221.396 183.535 221.305 183.22 221.121C182.916 220.941 182.675 220.698 182.495 220.396C182.371 220.221 182.293 220.018 182.259 219.808C182.159 219.445 182.159 219.079 182.259 218.716C182.349 218.392 182.507 218.108 182.733 217.863L182.787 217.807C182.973 217.606 183.193 217.465 183.448 217.382C183.673 217.264 183.913 217.204 184.17 217.203ZM82.551 217.317C82.7076 217.274 82.8618 217.274 83.0181 217.317C83.2505 217.327 83.4679 217.397 83.6688 217.524C83.7871 217.617 83.9055 217.708 84.0238 217.799L84.1269 217.922C84.3474 218.191 84.353 218.237 84.5221 218.646C84.5921 218.874 84.6026 219.103 84.5519 219.331C84.5519 219.485 84.5118 219.629 84.4355 219.762C84.3935 219.908 84.3216 220.035 84.2139 220.14C84.1376 220.269 84.0364 220.373 83.9074 220.449C83.7428 220.599 83.5484 220.703 83.3245 220.755L82.87 220.817C82.8111 220.808 82.7498 220.8 82.6907 220.793C82.6194 220.791 82.5501 220.783 82.4823 220.77L82.4137 220.755L82.3512 220.739C82.2685 220.714 82.1879 220.682 82.1097 220.641C81.9618 220.599 81.8329 220.525 81.7228 220.415C81.5329 220.293 81.3808 220.128 81.2709 219.923L81.2414 219.855C81.2012 219.783 81.1674 219.709 81.1419 219.629C81.0702 219.502 81.0343 219.367 81.0322 219.221C80.9902 219.027 80.993 218.835 81.0433 218.642L81.0618 218.578L81.2245 218.192C81.309 218.061 81.3977 217.927 81.5116 217.82C81.5802 217.759 81.7479 217.628 81.8424 217.562L81.9003 217.524C82.1012 217.397 82.3188 217.327 82.551 217.317ZM59.8126 213.574C60.668 214.43 60.29 216.002 59.0924 216.306L58.9548 216.34C57.7971 216.634 56.7534 215.588 57.0471 214.43L57.0809 214.294C57.3851 213.096 58.9569 212.718 59.8126 213.574ZM202.088 204.519C202.08 204.401 202.232 204.359 202.308 204.429C203.326 205.342 203.975 206.437 205.211 207.144C206.453 207.855 207.733 207.797 209.029 208.256C209.468 208.412 209.47 209 209.029 209.154C206.578 210.01 202.274 207.108 202.088 204.519ZM86.9369 204.333C87.2096 204.249 87.4843 204.236 87.7568 204.298C87.9427 204.298 88.1158 204.344 88.2742 204.437C88.4496 204.486 88.5998 204.574 88.7285 204.701C88.8829 204.792 89.0054 204.917 89.0982 205.071C89.2801 205.27 89.4026 205.502 89.4658 205.769L89.5376 206.316L89.4658 206.863C89.3961 207.026 89.3263 207.191 89.2587 207.354L89.07 207.61C88.917 207.814 88.8925 207.816 88.5214 208.091C88.285 208.241 88.0294 208.324 87.7568 208.334C87.5749 208.385 87.3932 208.385 87.2096 208.334C87.0258 208.334 86.8524 208.288 86.692 208.195C86.5186 208.146 86.3667 208.057 86.2376 207.931C86.0139 207.785 85.8385 207.593 85.7094 207.354C85.6397 207.191 85.5702 207.026 85.5026 206.863L85.4284 206.316L85.5026 205.769L85.5066 205.752C85.6038 205.409 85.7772 205.111 86.0263 204.86L86.4364 204.542C86.5968 204.439 86.7637 204.386 86.9369 204.333ZM185.559 204.743C186.144 204.583 186.786 204.752 187.215 205.181C187.644 205.61 187.813 206.25 187.653 206.836C187.494 207.407 187.036 207.869 186.463 208.024C186.292 208.07 186.119 208.096 185.943 208.087C185.65 208.085 185.375 208.011 185.12 207.863L184.79 207.607C184.629 207.459 184.517 207.284 184.452 207.081C184.348 206.887 184.302 206.677 184.31 206.451L184.308 206.411C184.302 206.331 184.312 206.25 184.338 206.172C184.338 206.09 184.351 206.009 184.372 205.931C184.526 205.361 184.991 204.9 185.559 204.743ZM59.3986 199.02C59.5866 199.014 59.7619 199.052 59.9246 199.138C60.0957 199.193 60.2415 199.286 60.364 199.422C60.4993 199.544 60.5922 199.692 60.6471 199.861C60.7338 200.024 60.7718 200.2 60.7655 200.387C60.7655 200.635 60.7021 200.865 60.5795 201.076C60.5077 201.17 60.4359 201.262 60.364 201.353C60.195 201.525 59.9943 201.641 59.7619 201.706L59.6267 201.753C59.4281 201.825 59.2338 201.829 59.0267 201.802C58.8091 201.772 58.6082 201.713 58.431 201.577C58.2575 201.476 58.1204 201.339 58.019 201.165L57.9028 200.89C57.8774 200.798 57.8669 200.658 57.8605 200.561C57.8605 200.546 57.8605 200.534 57.8584 200.519C57.8584 200.436 57.8838 200.236 57.9047 200.153C57.9514 199.98 58.0462 199.815 58.1542 199.675C58.2471 199.53 58.3739 199.415 58.5302 199.331L58.5442 199.32L58.5598 199.31C58.6082 199.276 58.6591 199.242 58.7098 199.206C58.9211 199.083 59.1514 199.02 59.3986 199.02ZM168.495 197.519C168.833 197.519 169.148 197.606 169.44 197.775C169.45 197.779 169.461 197.784 169.469 197.788C169.748 197.953 169.97 198.175 170.135 198.454C170.304 198.743 170.388 199.056 170.388 199.39C170.388 199.726 170.304 200.037 170.135 200.326C169.97 200.605 169.748 200.827 169.469 200.992C169.461 200.998 169.45 201.002 169.44 201.007C169.148 201.176 168.833 201.26 168.495 201.262C168.159 201.26 167.845 201.176 167.553 201.007C166.983 200.673 166.625 200.049 166.625 199.39C166.625 198.73 166.983 198.107 167.553 197.775C167.845 197.606 168.159 197.519 168.495 197.519ZM80.7595 195.076L80.817 195.074C81.0409 195.066 81.2499 195.112 81.4421 195.216C81.6428 195.281 81.8182 195.393 81.9663 195.552L82.2747 195.81L82.3642 195.882C82.379 195.894 82.3935 195.907 82.4076 195.92C82.6149 196.129 82.7564 196.374 82.8367 196.657C82.862 196.82 82.883 196.98 82.9001 197.143C82.9463 197.566 82.6973 197.999 82.4226 198.3C82.2747 198.458 82.0992 198.57 81.8966 198.637C81.7022 198.739 81.4909 198.785 81.2668 198.777C80.8083 198.737 80.3733 198.64 80.0438 198.285C80.0055 198.242 79.9696 198.198 79.9318 198.153L79.6677 197.849C79.467 197.646 79.3274 197.407 79.2515 197.133C79.2302 196.987 79.2114 196.843 79.1923 196.699C79.1731 196.266 79.3844 195.86 79.6677 195.552C79.9293 195.266 80.3729 195.092 80.7595 195.076ZM70.0952 190.625C72.2922 190.625 72.288 194.034 70.0952 194.034C67.9 194.034 67.9042 190.625 70.0952 190.625ZM180.563 185.845L180.632 185.847C180.996 185.849 181.336 185.94 181.651 186.124L182.06 186.438C182.31 186.692 182.483 186.988 182.58 187.33C182.603 187.51 182.627 187.69 182.652 187.867C182.663 188.146 182.603 188.406 182.477 188.647C182.396 188.896 182.257 189.114 182.06 189.298C181.877 189.495 181.661 189.634 181.41 189.714C181.169 189.841 180.909 189.9 180.632 189.89C180.267 189.887 179.926 189.797 179.612 189.613C179.475 189.507 179.339 189.402 179.202 189.298C178.972 189.064 178.807 188.794 178.708 188.484L178.684 188.406L178.611 187.867C178.6 187.59 178.659 187.33 178.786 187.089C178.866 186.838 179.006 186.622 179.202 186.438C179.386 186.242 179.603 186.102 179.853 186.022C180.073 185.906 180.31 185.846 180.563 185.845ZM170.667 179.464C170.863 179.457 171.045 179.498 171.216 179.587C171.391 179.643 171.543 179.743 171.672 179.88C171.945 180.098 172.112 180.533 172.112 180.886C172.112 181.239 171.945 181.675 171.672 181.892C171.495 182.068 171.286 182.19 171.045 182.258L170.667 182.309C170.299 182.326 169.925 182.133 169.663 181.892C169.61 181.844 169.56 181.795 169.507 181.748C169.268 181.529 169.165 181.201 169.15 180.886C169.143 180.719 169.18 180.563 169.255 180.417C169.304 180.265 169.389 180.136 169.507 180.024C169.56 179.977 169.61 179.929 169.663 179.88C169.949 179.616 170.282 179.483 170.667 179.464ZM233.367 168.095C234.755 166.404 233.947 165.2 231.861 165.618C228.267 166.104 224.885 168.376 221.72 170.006C218.266 171.831 214.705 173.336 211.182 175.051C212.636 175.944 213.717 177.342 214.543 178.938C216.192 177.685 218.3 177.086 220.357 177.008C224.09 173.431 230.272 172.613 233.367 168.095ZM69.3559 173.711C69.7324 173.713 70.085 173.801 70.4155 173.978L70.486 174.017L70.9381 174.368C71.1578 174.571 71.3121 174.812 71.4029 175.089C71.5423 175.355 71.6057 175.645 71.5952 175.953C71.6057 176.262 71.5423 176.549 71.4029 176.816C71.3121 177.095 71.1578 177.333 70.9381 177.536C70.8135 177.699 70.6529 177.826 70.4606 177.919C70.2809 177.993 70.1036 178.069 69.924 178.145C69.7233 178.208 69.4909 178.217 69.2733 178.227C68.8783 178.225 68.5109 178.126 68.1682 177.927L67.7247 177.585C67.5114 177.386 67.359 177.152 67.2703 176.879C67.1446 176.639 67.0809 176.383 67.0809 176.109L67.0825 176.034C67.0825 176.017 67.0825 175.998 67.0848 175.979C67.1099 175.78 67.1376 175.581 67.1647 175.383C67.2346 175.091 67.3677 174.835 67.5663 174.62C67.617 174.518 67.6846 174.436 67.7714 174.368C68.0501 174.089 68.3795 173.899 68.7599 173.791C68.9585 173.766 69.1571 173.738 69.3559 173.711ZM167.447 168.112C167.732 168.112 167.996 168.184 168.242 168.326C168.349 168.408 168.455 168.49 168.56 168.573C168.757 168.769 168.892 169.002 168.966 169.268L169.023 169.687C169.03 169.904 168.985 170.105 168.886 170.294C168.823 170.488 168.715 170.657 168.56 170.801C168.419 170.955 168.25 171.063 168.054 171.126C167.868 171.225 167.665 171.27 167.447 171.262C167.164 171.262 166.898 171.189 166.653 171.046C166.547 170.965 166.439 170.883 166.334 170.801C166.156 170.62 166.027 170.41 165.95 170.171L165.93 170.105L165.873 169.687C165.865 169.469 165.909 169.268 166.008 169.08C166.072 168.884 166.182 168.715 166.334 168.573C166.477 168.418 166.647 168.311 166.841 168.247C167.01 168.158 167.191 168.113 167.383 168.111L167.447 168.112ZM81.7041 165.822L81.7777 165.823C82.1982 165.825 82.589 165.931 82.9524 166.142C83.1087 166.263 83.2653 166.384 83.4214 166.506C83.7108 166.795 83.9094 167.138 84.0216 167.533L84.1038 168.15C84.1165 168.471 84.0489 168.769 83.9031 169.046C83.8104 169.336 83.6496 169.585 83.4214 169.797C83.2125 170.023 82.963 170.183 82.6735 170.277C82.3968 170.422 82.0989 170.49 81.7777 170.477C81.3573 170.477 80.9665 170.371 80.6031 170.16C80.447 170.04 80.2906 169.917 80.1322 169.797C79.8447 169.505 79.6461 169.163 79.5341 168.769L79.4517 168.15C79.439 167.831 79.5066 167.531 79.6524 167.254C79.7454 166.967 79.9059 166.715 80.1322 166.506C80.3435 166.278 80.5925 166.117 80.882 166.024C81.1374 165.889 81.4109 165.823 81.7041 165.822ZM159.933 160.011C160.125 159.96 160.317 159.96 160.509 160.011C160.797 160.024 161.065 160.11 161.314 160.269L161.752 160.607C161.758 160.613 161.764 160.62 161.771 160.628C162.035 160.894 162.218 161.21 162.32 161.571L162.396 162.14C162.407 162.433 162.345 162.708 162.212 162.962C162.133 163.206 162.002 163.418 161.821 163.601L161.752 163.67C161.555 163.881 161.325 164.031 161.056 164.118C160.888 164.217 160.704 164.266 160.509 164.266C160.222 164.331 159.933 164.319 159.645 164.227C159.474 164.153 159.301 164.082 159.128 164.01L159.073 163.978C158.42 163.621 158.016 162.873 158.016 162.14C158.016 161.406 158.42 160.656 159.073 160.298C159.092 160.29 159.109 160.279 159.128 160.269C159.377 160.11 159.645 160.024 159.933 160.011Z" fill="black"/>
<path fill-rule="evenodd" clip-rule="evenodd" d="M157.738 48.827C146.465 45.5102 107.699 48.91 106.74 49.6284C105.171 50.9352 97.5407 55.0816 96.3534 56.0282C85.6173 67.4356 95.8522 84.3759 95.0645 98.1373C95.1147 103.019 93.0398 107.476 92.086 112.172C91.6834 114.633 91.7721 117.178 93.0516 119.388C95.3011 123.336 100.052 124.136 103.915 125.728C105.838 126.558 107.634 127.734 109.28 129.021C120.366 138.853 126.537 145.585 142.713 143.367C142.795 144.141 143.479 144.902 144.327 144.556C146.313 143.745 148.285 142.885 150.288 142.117C150.717 143.151 151.947 143.447 152.78 142.533L152.785 142.54C156.493 139.524 158.851 135.401 160.603 130.987C161.828 128.44 162.832 125.783 163.599 123.047C163.686 122.737 163.674 122.461 163.596 122.223C167.135 109.997 168.444 97.1127 167.513 84.4196C167.324 81.8008 166.831 79.1473 166.952 76.5174C167.061 74.1414 168.082 71.8939 168.861 69.6811C172.874 60.2741 166.739 51.7888 157.738 48.827Z" fill="#D08B5B"/>
<path fill-rule="evenodd" clip-rule="evenodd" d="M159.155 33.5531L159.276 33.4597C160.575 32.4375 161.801 31.0979 163.633 31.6002C165.136 32.0124 165.895 33.2593 166.218 34.7663C166.675 34.2865 167.12 33.7898 167.555 33.2762C168.735 31.8813 171.373 32.6041 171.725 34.3816C172.437 37.9619 172.473 41.6055 171.779 45.1922C171.674 45.7353 171.55 46.2764 171.404 46.8111C172.195 45.8241 172.93 44.7948 173.59 43.7106C174.305 42.5334 175.92 43.1167 176.032 44.3742C176.061 44.6997 176.078 45.0294 176.082 45.3612C176.586 45.5388 176.934 46.0587 176.801 46.697C176.068 50.2096 175.138 53.6736 174.02 57.0785C175.817 56.1232 177.83 55.5568 179.725 56.231C182.736 57.3046 183.453 60.5975 182.864 63.4317C182.124 66.9951 179.797 69.9772 176.795 71.9322C176.439 72.469 176.086 73.0101 175.751 73.5617C175.745 75.1194 175.462 76.6728 174.893 78.1163C174.252 79.7374 173.122 81.1386 171.731 82.2038C171.242 83.2714 169.947 84.0512 168.81 83.8351L168.75 83.8228L168.748 83.8249C169.039 84.8689 169.29 85.9236 169.507 86.9803C171.188 95.1676 170.337 103.69 168.803 111.831L168.754 112.091C167.377 119.336 165.775 126.839 162.661 133.566C159.845 139.649 155.07 144.998 148.245 146.325C140.217 147.887 131.331 145.412 124.427 141.285C121.924 139.788 124.218 135.845 126.71 137.366C130.307 139.56 134.213 141.092 138.345 141.9C142.207 142.652 146.527 142.908 150.231 141.348C155.39 139.175 158.455 133.868 160.395 128.872C161.538 125.924 162.394 122.88 163.191 119.824C164.217 115.895 165.174 111.941 165.893 107.942C167.232 100.484 167.666 92.7375 166.25 85.2578C165.798 82.8717 165.16 80.4708 164.327 78.1628C164.196 78.0001 164.072 77.8183 163.96 77.6196C163.089 76.0895 162.488 74.35 161.841 72.6952C161.274 71.7082 160.654 70.7592 159.997 69.8314C159.013 69.0737 158.076 68.2636 157.218 67.3797C159.71 65.762 161.91 63.7369 163.492 61.1571C163.753 60.7317 163.587 60.3251 163.278 60.0957C162.014 61.6802 160.379 63.0221 158.658 64.2109C157.777 64.9676 156.828 65.6473 155.833 66.2615C155.123 66.4024 154.404 66.4992 153.708 66.5787C151.724 66.8048 149.73 66.7203 147.756 66.4561C143.489 65.8855 125.443 60.9031 117.836 62.8399C116.252 63.2434 115.505 64.6681 114.666 66.0059C113.938 67.1696 113.012 68.1329 111.902 68.926L111.777 69.0135C109.606 70.5204 105.24 75.2876 103.405 79.5425C101.035 85.0359 98.7591 101.498 99.8069 101.64C102.548 102.012 104.066 103.457 106.298 105.009C106.446 105.11 106.359 105.385 106.17 105.315C104.696 104.782 103.102 104.467 101.557 104.21C100.159 103.975 98.6875 103.933 97.3382 104.434C95.2679 105.203 94.2581 106.942 93.8428 108.904C93.6804 109.671 93.6088 110.472 93.6003 111.264L93.5991 111.494C93.6002 113.993 94.065 116.763 95.8751 118.607C96.6446 119.391 97.6882 119.919 98.7802 120.065C99.9756 120.226 100.713 119.685 101.812 119.404C103.077 119.08 104.063 119.915 103.945 121.004C104.213 121.238 104.472 121.485 104.73 121.737L104.73 121.738L104.732 121.739C104.9 121.815 105.061 121.917 105.206 122.039C105.444 122.242 105.645 122.464 105.805 122.703C106.161 122.773 106.503 122.971 106.783 123.335C107.361 124.081 107.894 124.835 108.389 125.605C109.277 126.549 110.16 127.496 111.031 128.458C112.079 129.614 113.099 130.796 114.126 131.971L114.64 132.558C115.195 133.19 115.747 133.822 116.3 134.456L116.464 134.642C117.02 135.266 117.446 135.726 117.505 136.624C117.548 137.29 116.833 137.742 116.24 137.59C115.327 137.354 114.903 136.635 114.356 135.922L113.529 134.859L112.751 133.858C112.366 133.359 111.976 132.862 111.588 132.366C111.472 133.281 110.506 134.018 109.625 134.059L109.419 134.067C107.35 134.136 104.835 133.843 103.26 132.381C102.552 133.097 101.671 133.661 100.585 133.999C98.1182 134.769 95.5968 133.406 94.5996 131.332C92.6664 132.163 90.4823 132.33 88.393 131.719C87.188 131.365 86.7712 129.859 87.611 128.938L87.6488 128.897L87.6585 128.886C87.4852 128.661 87.3899 128.384 87.3745 128.083C87.3558 127.717 87.6216 127.33 87.5668 126.988C87.3577 125.687 85.2402 126.651 84.5672 126.933C84.4386 126.987 84.318 127.012 84.2055 127.016C83.1651 127.32 82.0336 125.95 82.5786 124.818C83.7992 122.291 84.9904 119.744 86.2258 117.22C86.0698 117.273 85.9095 117.322 85.7514 117.362C83.5315 117.933 80.8393 116.838 81.3516 114.156C81.4696 113.526 82.0388 113.095 82.6039 112.9C83.7043 112.52 84.5308 112.795 85.3783 112.44C86.3333 112.042 87.3305 111.313 88.1695 110.626C89.0655 109.895 89.8393 109.073 90.5244 108.181C90.7985 106.885 91.2728 105.647 92.0318 104.582C92.0782 104.518 92.1246 104.455 92.1731 104.393C87.3059 103.23 87.9432 98.4314 85.7963 94.1787L85.6149 93.8262C84.1567 90.9815 82.8846 87.7743 83.62 84.535C83.7507 83.9623 83.9405 83.4149 84.185 82.9034C83.795 82.952 83.4029 82.9964 83.0128 83.0408C82.1169 83.1422 81.2061 81.984 81.5624 81.1323C81.75 80.6863 81.9566 80.2552 82.1801 79.8367C82.7999 78.6827 83.561 77.6344 84.457 76.6876C82.9517 76.6474 81.4443 76.6474 79.9559 76.4741C78.5497 76.3114 77.0719 75.5399 77.1152 73.9147C77.1587 72.365 78.515 71.1921 79.7725 70.4361C81.0102 68.7856 82.5802 67.414 84.356 66.3946C84.0047 66.3154 83.6488 66.2568 83.287 66.2207L83.1056 66.2046C82.0916 66.1243 81.1808 65.8453 80.2616 65.4205C79.4394 65.0401 79.4521 63.8861 79.9897 63.3049C81.7277 61.4213 84.3317 62.0347 86.358 63.114C86.2169 62.9346 86.0623 62.7617 85.894 62.5963L85.7913 62.4979C84.7958 61.5686 86.2899 60.0774 87.282 61.0035C87.5955 61.2962 87.8763 61.6143 88.1268 61.9514L88.1506 61.9015C89.4614 59.236 91.3786 56.8502 93.6469 54.9384L94.18 54.4941C98.2703 51.0688 99.5324 49.4453 104.972 49.9497C104.74 48.9591 104.763 47.8447 104.815 46.9285L104.822 46.8048C105.031 43.3598 106.298 39.2363 109.65 37.6892C110.521 37.2898 111.508 37.9428 111.276 38.9425C111.113 39.6506 110.915 40.3396 110.668 41.0095C111.4 40.2381 112.184 39.5174 113.015 38.8538C116.401 36.1485 120.925 33.8215 125.375 34.5824C127.821 35.003 129.739 36.5416 131.786 37.8266C133.844 39.1201 136.142 39.8873 138.552 40.1641C141.919 40.553 145.298 40.162 148.627 39.5449C150.914 38.5452 153.134 37.3743 155.302 36.1126C156.634 35.3369 157.931 34.4894 159.155 33.5531ZM99.3797 108.377C100.092 108.194 100.891 108.196 101.606 108.375C103.451 108.84 105.167 110.387 105.274 112.338C105.323 113.219 104.614 114.063 103.792 114.289C102.86 114.547 102.059 114.09 101.515 113.359C100.931 112.577 100.786 111.729 100.071 111.019L99.9064 110.858C99.2989 110.276 98.3802 109.523 97.5371 109.658C97.4127 109.677 97.32 109.508 97.4465 109.44C98.1338 109.064 98.5849 108.58 99.3797 108.377ZM108.961 99.19C109.287 98.9237 109.717 99.2361 109.564 99.6191L109.552 99.6466C109.166 100.462 109.619 101.42 110.087 102.102C110.49 102.692 109.729 103.252 109.193 102.999C107.688 102.282 107.766 100.162 108.961 99.19ZM114.464 74.6797C114.436 74.481 114.7 74.3986 114.767 74.5951C115.891 77.8647 116.214 80.7602 116.03 84.2179L116.013 84.5248C115.815 87.8552 115.233 91.3802 113.222 94.1154C112.756 94.7474 111.803 94.3754 111.957 93.5807C112.575 90.3999 113.762 87.3797 114.224 84.1608C114.706 80.7961 114.923 78.0465 114.464 74.6797ZM103.968 86.564C104.133 85.6911 105.472 84.7928 106.148 85.67C106.376 85.968 106.108 86.3336 105.834 86.4435C105.577 86.5449 105.347 86.4055 105.094 86.4562C104.89 86.4976 104.74 86.6256 104.64 86.8005L104.62 86.8387C104.422 87.2192 103.899 86.9359 103.968 86.564ZM103.42 79.6105C103.901 78.7186 105.008 78.1501 105.954 78.7059C106.266 78.8898 106.144 79.4245 105.765 79.4076L105.54 79.3985C104.865 79.3739 104.19 79.3875 103.623 79.8155C103.496 79.9106 103.357 79.731 103.42 79.6105ZM105.11 55.2529C102.414 54.0376 99.7324 55.1347 97.5308 56.8458C97.3486 56.9874 97.2603 57.1527 97.2409 57.3188C98.7107 56.745 100.276 56.3688 101.772 56.0583C102.995 55.8043 104.23 55.6329 105.466 55.5652C105.397 55.4407 105.283 55.3308 105.11 55.2529Z" fill="black"/>
<path fill-rule="evenodd" clip-rule="evenodd" d="M143.152 128.274C141.732 127.695 140.465 126.728 139.538 125.493C139.216 125.063 139.133 124.61 139.2 124.195C139.276 123.729 139.552 123.306 139.928 123.023C140.305 122.739 140.777 122.598 141.233 122.67C141.63 122.732 142.024 122.949 142.336 123.399L142.402 123.489C142.953 124.235 143.67 124.846 144.488 125.241C145.276 125.621 146.158 125.798 147.07 125.695C148.807 125.499 150.005 124.559 151.278 123.282C151.436 123.121 151.593 122.955 151.752 122.786C151.852 122.633 151.991 122.534 152.146 122.483C152.317 122.425 152.511 122.429 152.689 122.491C152.86 122.55 153.013 122.664 153.116 122.815C153.213 122.958 153.268 123.135 153.251 123.339C153.134 124.661 152.443 125.842 151.461 126.769C150.37 127.799 148.924 128.511 147.563 128.761C146.064 129.036 144.536 128.839 143.152 128.274ZM148.27 107.866C149.866 108.836 152.297 111.098 150.58 113.503C148.56 115.624 145.652 113.193 144.218 112.093C142.889 111.241 141.396 113.433 142.629 114.428C152.986 122.099 157.189 108.12 149.077 106.726C148.184 106.572 147.853 107.566 148.27 107.866ZM129.711 98.9429C129.887 96.7541 133.219 96.257 133.551 98.423C133.847 100.363 133.498 102.145 132.624 103.892C131.79 105.561 129.692 104.783 129.533 103.263C129.32 101.226 129.601 100.304 129.711 98.9429ZM155.076 97.9738C155.541 97.3652 156.212 96.9496 157.015 97.1845C159.526 97.9185 158.786 101.485 157.904 103.22C157.425 104.163 155.876 104.402 155.176 103.572C154.035 102.219 153.489 99.5156 154.939 98.1825C154.979 98.1136 155.022 98.044 155.076 97.9738ZM132.589 89.3654L132.986 89.2959C134.213 89.0836 135.738 88.8796 136.606 89.8665C137.067 90.3898 137.225 91.3624 136.606 91.8633C135.518 92.7446 134.314 92.4031 133.01 92.4777C131.935 92.5394 130.902 92.7174 129.867 93.0135C127.595 93.663 125.744 94.8486 123.804 96.1506C123.55 96.3213 123.29 95.9956 123.411 95.7574C124.531 93.563 126.701 91.7604 128.875 90.6616C130.036 90.0751 131.305 89.5885 132.589 89.3654ZM152.787 88.3823L153.091 88.4445C156.394 89.1353 160.687 90.5153 162.251 93.7615C162.311 94.2205 162.248 94.3189 162.196 94.3832L162.179 94.4046C162.137 94.4595 162.103 94.5351 161.905 94.5976C161.849 94.5844 161.794 94.5705 161.737 94.5557C161.02 94.3677 160.453 94.1087 159.904 93.84L159.308 93.5465C158.617 93.2076 157.92 92.881 157.181 92.6399C155.605 92.1254 153.983 91.7631 152.336 91.5696C151.98 91.5277 151.636 91.4072 151.365 91.2006C151.107 91.0046 150.911 90.7332 150.821 90.3724C150.705 89.9056 150.738 89.5521 150.989 89.1309C151.177 88.8146 151.446 88.5953 151.756 88.4694C152.071 88.3411 152.43 88.3108 152.787 88.3823Z" fill="black"/>
</svg>
