<?xml version="1.0" standalone="no"?>
<!DOCTYPE svg PUBLIC "-//W3C//DTD SVG 20010904//EN"
 "http://www.w3.org/TR/2001/REC-SVG-20010904/DTD/svg10.dtd">
<svg version="1.0" xmlns="http://www.w3.org/2000/svg"
 width="512.000000pt" height="512.000000pt" viewBox="0 0 512.000000 512.000000"
 preserveAspectRatio="xMidYMid meet">

<g transform="translate(0.000000,512.000000) scale(0.100000,-0.100000)"
fill="#000000" stroke="none">
<path d="M2250 4090 l0 -190 1415 0 1415 0 0 190 0 190 -1415 0 -1415 0 0
-190z"/>
<path d="M286 4187 c-15 -35 -15 -39 1 -65 l18 -27 -27 18 c-26 16 -30 16 -65
1 l-38 -16 39 -15 c30 -13 43 -14 57 -5 10 7 21 12 23 12 2 0 -27 -77 -65
-172 -38 -94 -67 -174 -64 -176 2 -3 27 5 55 16 l50 21 16 -31 17 -32 16 31
16 31 58 -23 c31 -13 57 -21 57 -19 0 3 -31 81 -70 174 -38 93 -70 171 -70
174 0 3 11 1 25 -6 18 -8 32 -8 55 2 16 7 30 15 30 19 0 14 -63 30 -81 21 -26
-15 -30 -12 -18 13 8 18 7 32 -4 58 l-15 34 -16 -38z"/>
<path d="M847 4187 c-15 -36 -15 -40 1 -64 l17 -26 -27 17 c-24 16 -29 16 -65
1 l-38 -17 39 -15 c31 -13 42 -14 58 -4 11 7 21 11 23 9 1 -2 -28 -79 -66
-172 -38 -93 -67 -171 -64 -174 2 -3 27 5 55 16 l50 21 16 -31 17 -32 16 31
16 31 58 -23 c31 -13 57 -21 57 -19 0 3 -31 81 -70 174 -38 93 -70 171 -70
174 0 3 11 1 25 -6 18 -8 32 -8 55 2 16 7 30 15 30 19 0 14 -63 30 -81 21 -25
-14 -35 -12 -21 2 15 15 15 35 -2 73 l-13 30 -16 -38z"/>
<path d="M1407 4187 c-15 -35 -15 -40 -1 -63 16 -23 17 -23 30 -7 17 22 17 40
0 78 l-13 30 -16 -38z"/>
<path d="M1967 4187 c-15 -35 -15 -40 -1 -63 16 -23 17 -23 30 -7 17 22 17 40
0 78 l-13 30 -16 -38z"/>
<path d="M1330 4114 l-35 -16 39 -15 c31 -13 42 -14 58 -4 11 7 21 11 23 9 2
-2 -28 -79 -66 -172 -38 -93 -67 -171 -64 -174 2 -3 27 5 55 16 l50 21 16 -31
17 -32 16 32 16 31 58 -23 c31 -13 57 -21 57 -17 0 3 -29 76 -65 161 -85 202
-82 193 -51 179 19 -9 32 -9 56 1 38 16 38 23 -2 38 -29 10 -36 10 -58 -7 -25
-18 -26 -18 -49 0 -28 22 -26 22 -71 3z"/>
<path d="M1890 4113 l-35 -15 39 -16 c31 -12 42 -13 58 -3 11 7 21 11 23 9 2
-2 -28 -79 -66 -173 -38 -93 -69 -172 -69 -176 0 -5 24 3 54 16 l55 24 19 -30
19 -30 13 30 c7 17 14 31 16 31 2 0 28 -11 59 -24 30 -14 55 -22 55 -18 0 4
-29 77 -65 162 -85 202 -82 193 -51 179 19 -9 33 -8 63 4 l38 15 -40 16 c-37
16 -40 16 -65 -2 -25 -19 -26 -19 -49 -1 -27 22 -25 22 -71 2z"/>
<path d="M565 3726 c-11 -27 -13 -42 -6 -49 18 -18 12 -28 -9 -17 -15 8 -29 6
-57 -5 l-38 -16 35 -15 c31 -14 39 -14 66 0 28 13 34 13 53 0 17 -13 28 -13
56 -4 44 15 44 25 -1 40 -26 9 -39 9 -47 1 -19 -19 -27 -12 -16 12 8 18 7 32
-4 58 l-15 34 -17 -39z"/>
<path d="M1125 3726 c-11 -27 -13 -42 -6 -49 18 -18 12 -28 -9 -17 -15 8 -29
6 -57 -5 l-38 -16 35 -15 c31 -14 39 -14 66 0 28 13 34 13 53 0 17 -13 28 -13
56 -4 44 15 44 25 -1 40 -26 9 -39 9 -47 1 -19 -19 -27 -12 -16 12 8 18 7 32
-4 58 l-15 34 -17 -39z"/>
<path d="M1689 3730 c-7 -19 -13 -37 -12 -40 1 -3 5 -13 9 -24 6 -16 5 -17
-14 -7 -17 9 -30 8 -59 -4 l-38 -16 35 -15 c31 -14 39 -14 66 0 28 13 34 13
53 0 17 -13 28 -13 56 -4 19 6 35 15 35 20 0 15 -61 30 -80 20 -28 -15 -31
-12 -19 13 8 18 7 32 -4 58 l-15 34 -13 -35z"/>
<path d="M577 3623 c-8 -14 -137 -333 -137 -339 0 -8 23 -1 72 20 l36 16 20
-31 19 -30 13 30 c7 17 14 31 15 31 2 0 25 -9 51 -20 26 -11 51 -19 55 -18 6
2 -124 334 -136 346 -2 2 -5 0 -8 -5z"/>
<path d="M1137 3623 c-4 -6 -83 -200 -135 -332 -6 -16 10 -13 70 13 l36 16 20
-31 19 -30 13 30 c7 17 14 31 15 31 2 0 25 -9 51 -20 26 -11 51 -19 55 -18 6
2 -124 334 -136 346 -2 2 -5 0 -8 -5z"/>
<path d="M1691 3609 c-5 -13 -37 -91 -70 -173 -34 -82 -59 -152 -56 -154 2 -3
27 5 56 17 28 12 52 21 54 19 1 -2 9 -16 17 -32 l15 -28 13 31 c7 18 18 30 24
28 6 -3 30 -13 54 -22 24 -10 45 -16 47 -13 4 4 -130 337 -140 346 -2 3 -9 -6
-14 -19z"/>
<path d="M2250 3330 l0 -190 1415 0 1415 0 0 190 0 190 -1415 0 -1415 0 0
-190z"/>
<path d="M846 3277 c-11 -28 -13 -44 -6 -57 14 -25 13 -37 -2 -22 -15 15 -40
15 -73 0 l-26 -12 33 -17 c29 -15 36 -15 60 -3 32 17 39 39 -51 -180 -34 -82
-61 -153 -61 -157 0 -5 23 0 50 11 64 25 64 25 79 -7 l13 -28 14 28 c17 32 19
33 80 7 26 -11 48 -19 50 -17 2 2 -28 79 -66 171 -39 93 -70 173 -70 178 0 4
10 2 23 -6 19 -12 27 -12 62 4 l40 17 -41 13 c-31 9 -46 10 -63 1 -24 -13 -26
-9 -9 18 9 14 8 27 -4 57 l-16 39 -16 -38z"/>
<path d="M1406 3277 c-11 -28 -13 -44 -6 -57 14 -25 13 -37 -2 -22 -15 15 -40
15 -73 0 l-26 -12 33 -17 c29 -15 36 -15 60 -3 32 17 39 39 -51 -180 -34 -82
-61 -153 -61 -157 0 -5 23 0 50 11 64 25 64 25 79 -7 l13 -28 14 28 c17 32 19
33 80 7 26 -11 48 -19 50 -17 2 2 -28 79 -66 172 -39 93 -70 172 -70 177 0 5
10 2 23 -6 19 -12 27 -12 62 4 l40 17 -41 13 c-31 9 -46 10 -63 1 -24 -13 -26
-9 -9 18 9 14 8 27 -4 57 l-16 39 -16 -38z"/>
<path d="M1966 3276 c-14 -35 -15 -42 -2 -62 15 -21 15 -22 -13 -11 -21 8 -37
7 -61 -3 l-32 -13 33 -18 c30 -15 37 -15 61 -3 l28 15 -17 -43 c-9 -24 -41
-101 -70 -172 -29 -72 -53 -133 -53 -138 0 -4 23 1 50 12 64 25 64 25 79 -7
l13 -28 14 28 c17 32 19 33 80 7 26 -11 48 -19 50 -17 2 2 -28 79 -66 172 -39
93 -70 172 -70 177 0 5 10 2 23 -6 19 -12 27 -12 62 4 l40 17 -41 13 c-31 9
-46 10 -63 1 -24 -13 -26 -9 -9 18 9 14 8 27 -4 57 l-16 39 -16 -39z"/>
<path d="M283 3269 c-8 -21 -9 -38 -3 -50 14 -25 12 -35 -2 -21 -15 15 -40 15
-73 0 l-26 -12 33 -17 c30 -15 36 -16 62 -2 26 14 32 14 55 0 23 -13 30 -13
66 3 l40 17 -41 13 c-31 9 -46 10 -63 1 -24 -13 -26 -9 -9 18 9 14 8 26 -2 50
-16 39 -23 39 -37 0z"/>
<path d="M227 3002 c-37 -92 -67 -170 -67 -174 0 -4 23 1 50 12 64 25 64 25
79 -7 l13 -28 14 28 c17 32 19 33 80 7 26 -11 48 -19 50 -17 5 5 -139 347
-146 347 -3 0 -36 -75 -73 -168z"/>
<path d="M40 2560 l0 -190 2520 0 2520 0 0 190 0 190 -2520 0 -2520 0 0 -190z"/>
<path d="M40 1800 l0 -190 2520 0 2520 0 0 190 0 190 -2520 0 -2520 0 0 -190z"/>
<path d="M40 1030 l0 -190 2520 0 2520 0 0 190 0 190 -2520 0 -2520 0 0 -190z"/>
</g>
</svg>
