<svg width="600" height="600" viewBox="0 0 600 600" fill="none" xmlns="http://www.w3.org/2000/svg">
<path d="M0 86.6667C0 63.6812 9.13092 41.6372 25.3841 25.3841C41.6372 9.13092 63.6812 0 86.6667 0H180C202.985 0 225.029 9.13092 241.283 25.3841C257.536 41.6372 266.667 63.6812 266.667 86.6667V180C266.667 202.985 257.536 225.029 241.283 241.283C225.029 257.536 202.985 266.667 180 266.667H86.6667C63.6812 266.667 41.6372 257.536 25.3841 241.283C9.13092 225.029 0 202.985 0 180V86.6667ZM0 420C0 397.015 9.13092 374.971 25.3841 358.717C41.6372 342.464 63.6812 333.333 86.6667 333.333H180C202.985 333.333 225.029 342.464 241.283 358.717C257.536 374.971 266.667 397.015 266.667 420V513.333C266.667 536.319 257.536 558.363 241.283 574.616C225.029 590.869 202.985 600 180 600H86.6667C75.2854 600 64.0156 597.758 53.5008 593.403C42.9859 589.047 33.4318 582.664 25.3841 574.616C9.13092 558.363 0 536.319 0 513.333V420ZM333.333 86.6667C333.333 63.6812 342.464 41.6372 358.717 25.3841C374.971 9.13092 397.015 0 420 0H513.333C524.715 0 535.984 2.2417 546.499 6.59711C557.014 10.9525 566.568 17.3363 574.616 25.3841C582.664 33.4318 589.047 42.9859 593.403 53.5008C597.758 64.0156 600 75.2854 600 86.6667V180C600 191.381 597.758 202.651 593.403 213.166C589.047 223.681 582.664 233.235 574.616 241.283C566.568 249.33 557.014 255.714 546.499 260.07C535.984 264.425 524.715 266.667 513.333 266.667H420C397.015 266.667 374.971 257.536 358.717 241.283C342.464 225.029 333.333 202.985 333.333 180V86.6667ZM466.667 333.333C475.507 333.333 483.986 336.845 490.237 343.096C496.488 349.348 500 357.826 500 366.667V433.333H566.667C575.507 433.333 583.986 436.845 590.237 443.096C596.488 449.348 600 457.826 600 466.667C600 475.507 596.488 483.986 590.237 490.237C583.986 496.488 575.507 500 566.667 500H500V566.667C500 575.507 496.488 583.986 490.237 590.237C483.986 596.488 475.507 600 466.667 600C457.826 600 449.348 596.488 443.096 590.237C436.845 583.986 433.333 575.507 433.333 566.667V500H366.667C357.826 500 349.348 496.488 343.096 490.237C336.845 483.986 333.333 475.507 333.333 466.667C333.333 457.826 336.845 449.348 343.096 443.096C349.348 436.845 357.826 433.333 366.667 433.333H433.333V366.667C433.333 357.826 436.845 349.348 443.096 343.096C449.348 336.845 457.826 333.333 466.667 333.333Z" fill="#43C466"/>
</svg>
