<svg width="22" height="22" viewBox="0 0 22 22" fill="none" xmlns="http://www.w3.org/2000/svg">
<path d="M13.0412 19.1224L19.1224 13.0412C19.9144 12.2492 20.3103 11.8529 20.4587 11.3962C20.5892 10.9945 20.5892 10.5627 20.4587 10.161C20.3103 9.70433 19.9144 9.30746 19.1224 8.51543L13.0399 2.43297C12.2488 1.64183 11.8531 1.24618 11.3967 1.09789C10.995 0.967371 10.5622 0.967371 10.1605 1.09789C9.70403 1.2462 9.30729 1.64294 8.51592 2.43431L2.4348 8.51543L2.43432 8.51634C1.64261 9.30805 1.24623 9.70442 1.09789 10.161C0.967371 10.5627 0.967371 10.9945 1.09789 11.3962C1.24618 11.8526 1.64232 12.2488 2.43346 13.0399L8.51968 19.1261C9.3092 19.9156 9.70457 20.311 10.1605 20.4592C10.5622 20.5897 10.995 20.5897 11.3967 20.4592C11.8532 20.3108 12.2489 19.9151 13.0404 19.1237L13.0412 19.1224Z" fill="#FDB544" stroke="#FDB544" stroke-width="2" stroke-linecap="round" stroke-linejoin="round"/>
</svg>
