<svg width="561" height="509" viewBox="0 0 561 509" fill="none" xmlns="http://www.w3.org/2000/svg">
<path d="M0 101.575V407.05C0 435.175 11.725 460.175 30.475 479.7C49.225 498.45 73.45 508.6 101.575 508.6H254.7V445.325H101.575C80.475 445.325 64.075 428.125 64.075 407.05V101.575C64.075 80.475 80.475 64.075 101.575 64.075H254.7V0H101.575C73.45 0 49.225 10.95 30.475 29.7C11.725 49.225 0 73.45 0 101.575ZM167.975 193.775V315.65C167.975 329.725 180.475 341.425 194.55 341.425H335.95V437.525C335.95 446.125 340.65 453.15 348.45 457.05C351.575 457.825 354.7 457.825 356.275 457.825C361.75 457.825 366.425 456.25 370.35 452.35L553.95 268.75C562.55 261.725 561.775 247.65 553.95 239.85L370.35 57.025C359.4 45.3 335.975 52.325 335.975 71.1V167.975H194.575C180.5 167.975 168 179.7 168 193.75L167.975 193.775Z" fill="#ED7F7F"/>
</svg>
