<?xml version="1.0" encoding="UTF-8"?>
<!DOCTYPE svg PUBLIC "-//W3C//DTD SVG 1.1//EN" "http://www.w3.org/Graphics/SVG/1.1/DTD/svg11.dtd">
<svg xmlns="http://www.w3.org/2000/svg" version="1.1" width="512px" height="512px" style="shape-rendering:geometricPrecision; text-rendering:geometricPrecision; image-rendering:optimizeQuality; fill-rule:evenodd; clip-rule:evenodd" xmlns:xlink="http://www.w3.org/1999/xlink">
<g><path style="opacity:0.945" fill="#000000" d="M 511.5,196.5 C 511.5,201.5 511.5,206.5 511.5,211.5C 508.908,216.834 505.242,221.334 500.5,225C 487.662,232.587 474.662,239.92 461.5,247C 457.584,248.102 453.584,248.769 449.5,249C 436,262.5 422.5,276 409,289.5C 408.333,290.167 408.333,290.833 409,291.5C 419.067,300.898 428.4,310.898 437,321.5C 445.621,341.628 441.121,358.128 423.5,371C 413.914,375.476 403.914,376.642 393.5,374.5C 390.599,387.903 382.599,396.737 369.5,401C 358.829,403.802 348.663,402.635 339,397.5C 331.867,414.634 319.034,422.801 300.5,422C 294.569,421.356 289.069,419.523 284,416.5C 277.354,427.158 269.187,436.658 259.5,445C 243.426,457.24 227.092,457.573 210.5,446C 202.677,438.52 198.511,429.353 198,418.5C 175.078,416.08 162.912,403.413 161.5,380.5C 137.353,378.851 124.853,365.851 124,341.5C 107.591,339.297 96.9243,330.297 92,314.5C 90.4794,308.842 90.146,303.176 91,297.5C 81.8333,288.333 72.6667,279.167 63.5,270C 58.7492,269.811 54.0826,269.145 49.5,268C 38.1667,261.667 26.8333,255.333 15.5,249C 7.89337,245.562 2.56003,240.062 -0.5,232.5C -0.5,227.5 -0.5,222.5 -0.5,217.5C 24.7207,173.399 50.2207,129.399 76,85.5C 87.659,75.4457 99.8257,74.9457 112.5,84C 122.67,90.2525 133.003,96.2525 143.5,102C 148.415,105.575 151.748,110.242 153.5,116C 168.5,116.333 183.5,116.667 198.5,117C 202.796,117.374 206.963,118.207 211,119.5C 218.776,109.714 228.276,102.214 239.5,97C 241.788,96.1779 244.122,95.5112 246.5,95C 283.805,93.8711 321.138,93.0377 358.5,92.5C 360.546,87.9503 363.546,84.1169 367.5,81C 380.167,73.6667 392.833,66.3333 405.5,59C 417.099,54.6092 427.266,56.7759 436,65.5C 441,74.1667 446,82.8333 451,91.5C 452.641,103.767 447.474,108.267 435.5,105C 429.541,96.921 424.208,88.421 419.5,79.5C 418.672,78.5853 417.672,77.9186 416.5,77.5C 404.629,84.5333 392.629,91.3667 380.5,98C 379.196,98.804 378.529,99.9707 378.5,101.5C 401.852,143.704 425.852,185.537 450.5,227C 451.833,227.667 453.167,227.667 454.5,227C 466.167,220.167 477.833,213.333 489.5,206.5C 490.631,204.926 490.798,203.259 490,201.5C 484.501,192.669 479.668,183.502 475.5,174C 477.013,165.493 482.013,162.16 490.5,164C 492.286,164.785 493.786,165.951 495,167.5C 500.541,177.261 506.041,186.928 511.5,196.5 Z M 93.5,98.5 C 105.927,105.076 118.26,111.91 130.5,119C 131.804,119.804 132.471,120.971 132.5,122.5C 109.269,163.959 85.7693,205.292 62,246.5C 61.196,247.804 60.0293,248.471 58.5,248.5C 46.8705,242.017 35.2038,235.517 23.5,229C 20.9938,227.484 20.1605,225.318 21,222.5C 44.9409,180.939 69.1076,139.606 93.5,98.5 Z M 254.5,114.5 C 289.835,114.333 325.168,114.5 360.5,115C 384.419,155.503 408.086,196.169 431.5,237C 418.667,249.833 405.833,262.667 393,275.5C 369.167,251.667 345.333,227.833 321.5,204C 337.607,190.954 344.774,174.121 343,153.5C 340.081,147.975 335.581,146.142 329.5,148C 327.714,148.785 326.214,149.951 325,151.5C 323.181,157.373 321.847,163.373 321,169.5C 318.146,177.548 313.146,183.881 306,188.5C 293.167,175.667 280.333,162.833 267.5,150C 262.8,146.788 258.133,146.788 253.5,150C 240.804,163.03 227.804,175.696 214.5,188C 203.974,191.32 196.807,187.82 193,177.5C 192.177,173.262 192.844,169.262 195,165.5C 209.833,150.667 224.667,135.833 239.5,121C 244.142,117.74 249.142,115.573 254.5,114.5 Z M 149.5,137.5 C 163.837,137.333 178.171,137.5 192.5,138C 187.667,142.833 182.833,147.667 178,152.5C 167.369,171.341 169.869,188.174 185.5,203C 199.086,212.113 213.086,212.78 227.5,205C 238.471,195.03 249.137,184.697 259.5,174C 260.167,173.333 260.833,173.333 261.5,174C 313,225.5 364.5,277 416,328.5C 422.352,337.081 421.518,344.914 413.5,352C 408.349,354.905 403.015,355.238 397.5,353C 363.528,320.028 329.861,286.695 296.5,253C 285.67,250.165 280.503,254.331 281,265.5C 281.667,266.833 282.333,268.167 283,269.5C 312.333,298.833 341.667,328.167 371,357.5C 375.593,366.638 373.759,374.138 365.5,380C 359.985,382.238 354.651,381.905 349.5,379C 314.167,343.667 278.833,308.333 243.5,273C 230.234,269.267 225.067,274.101 228,287.5C 257.333,316.833 286.667,346.167 316,375.5C 322.847,388.81 319.014,397.476 304.5,401.5C 300.378,401.056 296.712,399.556 293.5,397C 285.833,389.333 278.167,381.667 270.5,374C 263.92,369.354 256.586,367.187 248.5,367.5C 246.495,344.828 234.162,332.495 211.5,330.5C 209.137,307.139 196.137,294.473 172.5,292.5C 166.622,267.463 150.956,256.963 125.5,261C 121.714,262.393 118.048,264.059 114.5,266C 110.333,270.167 106.167,274.333 102,278.5C 94.652,271.319 87.4854,263.986 80.5,256.5C 103.259,216.642 126.259,176.976 149.5,137.5 Z M 132.5,280.5 C 143.5,280.004 149.834,285.171 151.5,296C 150.928,299.384 149.761,302.551 148,305.5C 144.167,309.333 140.333,313.167 136.5,317C 123.432,322.966 115.099,318.966 111.5,305C 111.947,302.044 112.78,299.211 114,296.5C 119.497,290.154 125.664,284.82 132.5,280.5 Z M 172.5,314.5 C 185.288,315.12 191.122,321.786 190,334.5C 184.252,343.584 177.085,351.417 168.5,358C 153.352,361.854 145.852,356.02 146,340.5C 151.379,332.114 157.879,324.614 165.5,318C 167.925,316.787 170.259,315.621 172.5,314.5 Z M 208.5,351.5 C 223.137,351.961 228.97,359.294 226,373.5C 219.865,380.636 213.365,387.469 206.5,394C 197.362,398.593 189.862,396.759 184,388.5C 181.762,382.985 182.095,377.651 185,372.5C 192.158,364.496 199.991,357.496 208.5,351.5 Z M 244.5,388.5 C 259.094,388.254 265.261,395.254 263,409.5C 256.532,416.97 249.698,424.136 242.5,431C 229.664,435.582 221.664,431.249 218.5,418C 219.168,414.68 220.335,411.513 222,408.5C 228.825,400.828 236.325,394.161 244.5,388.5 Z"/></g>
<g><path style="opacity:0.884" fill="#000000" d="M 460.5,124.5 C 469.812,123.98 474.312,128.314 474,137.5C 470.225,145.535 464.392,147.368 456.5,143C 451.481,135.187 452.814,129.021 460.5,124.5 Z"/></g>
</svg>
